<svg xmlns="http://www.w3.org/2000/svg" viewBox="0 0 730.86 161.75">
  <text/>
  <g>
    <g>
      <path d="m177.15,97.74v-47.32h27.13c4.6,0,8.22,1.14,10.87,3.43,2.64,2.29,3.97,5.42,3.97,9.39s-1.28,7.44-3.84,9.99c-2.56,2.54-5.97,3.82-10.22,3.82h-22.03v20.7h-5.87Zm5.87-26.23h20.88c2.97,0,5.22-.66,6.75-1.97,1.53-1.31,2.29-3.24,2.29-5.79s-.76-4.42-2.29-5.81c-1.53-1.39-3.68-2.08-6.45-2.08h-21.18v15.65Z" style="fill: #fff; stroke: #fff; stroke-miterlimit: 10; stroke-width: 2px;"/>
      <path d="m240.57,81.75v15.99h-5.74v-36.52h25.2c3.74,0,6.67.9,8.79,2.7,2.11,1.8,3.17,4.3,3.17,7.5,0,2.6-.84,4.85-2.51,6.75-1.67,1.9-3.85,3.06-6.54,3.49l10.16,16.07h-6.22l-10.37-15.99h-15.95Zm0-5.36h19.46c1.97,0,3.48-.43,4.52-1.29,1.04-.86,1.56-2.09,1.56-3.69s-.52-2.82-1.56-3.67c-1.04-.84-2.55-1.26-4.52-1.26h-19.46v9.9Z" style="fill: #fff; stroke: #fff; stroke-miterlimit: 10; stroke-width: 2px;"/>
      <path d="m298.34,96.5c-.52.04-5.02.27-7.8-3.13-1.3-1.6-1.68-3.32-1.81-4.25-.05-3.55-.09-7.1-.14-10.65.02-4.25.05-8.5.07-12.74.27-.82.82-2.07,1.95-3.2,2.19-2.18,5.23-2.31,6.96-2.37,7.08-.25,11.59.03,15.6.05,7.51.03,10.28.22,15.81.6,1.09.08,3.13.25,4.6,1.72,1.31,1.32,1.74,3.07,1.72,5.92-.02,3.78-.03,7.57-.05,11.35v9.68c-.08.66-.42,2.71-2.16,4.46-2.08,2.08-4.65,2.21-5.22,2.23-9.84.12-19.68.23-29.53.35Zm29.09-6.89c0-7.65-.01-15.3-.02-22.95h-30.57v22.95c10.2,0,20.39,0,30.59,0Z" style="fill: #fff; stroke: #fff; stroke-miterlimit: 10; stroke-width: 2px;"/>
      <path d="m372.46,81.13v-5.27c7.5,0,15.01,0,22.51-.01v14.86c-.66,1.21-1.88,3.02-3.99,4.27-2.33,1.39-4.65,1.44-5.84,1.46-12.54.17-26.26.03-27.03.02-1.48.04-3.64-.16-5.29-1.58-2.52-2.17-2.33-5.89-2.09-13.6.09-2.97.24-8.16.37-15.04.18-1.18.65-2.97,2.09-4.27,1.32-1.19,2.9-1.46,6.96-1.67,2.41-.12,5.49-.21,9.1-.14,6.55.13,6.58-.07,12.72.14,7.77.27,9.05.67,10.19,1.62,2.75,2.29,3.01,6.29,2.97,8.4-2.93.02-5.86.03-8.8.05-.02-1.3-.03-2.6-.05-3.9h-17.78c-3.42-.02-6.84-.03-10.26-.05-.03,4.8-.06,9.59-.09,14.39-.04,3.05-.08,6.1-.12,9.15,5.58.28,11.5.4,17.71.28,3.84-.07,7.56-.24,11.14-.46.03-2.88.06-5.76.09-8.63-4.84,0-9.69,0-14.53,0Z" style="fill: #fff; stroke: #fff; stroke-miterlimit: 10; stroke-width: 2px;"/>
      <path d="m414.59,81.75v15.99h-5.74v-36.52h25.2c3.74,0,6.67.9,8.79,2.7,2.11,1.8,3.17,4.3,3.17,7.5,0,2.6-.84,4.85-2.51,6.75-1.67,1.9-3.85,3.06-6.54,3.49l10.16,16.07h-6.22l-10.37-15.99h-15.95Zm0-5.36h19.46c1.97,0,3.48-.43,4.52-1.29,1.04-.86,1.56-2.09,1.56-3.69s-.52-2.82-1.56-3.67c-1.04-.84-2.55-1.26-4.52-1.26h-19.46v9.9Z" style="fill: #fff; stroke: #fff; stroke-miterlimit: 10; stroke-width: 2px;"/>
      <path d="m456.15,97.74l18.6-36.61h3.6l18.78,36.61h-6.13l-4.76-9.3h-19.33l-4.72,9.3h-6.04Zm13.25-14.14h14.32l-7.12-14.02-7.2,14.02Z" style="fill: #fff; stroke: #fff; stroke-miterlimit: 10; stroke-width: 2px;"/>
      <path d="m510.91,97.74v-36.61h4.76l15,21.43,15-21.43h4.76v36.61h-5.7v-26.32l-14.06,20.36-14.02-20.36v26.32h-5.74Z" style="fill: #fff; stroke: #fff; stroke-miterlimit: 10; stroke-width: 2px;"/>
      <path d="m579.99,97.74l-15.43-47.32h5.79l11.74,36.52,12.05-36.52h5.27l12,36.44,11.79-36.44h5.62l-15.39,47.32h-4.29l-12.47-38.11-12.35,38.11h-4.33Z" style="fill: #fff; stroke: #fff; stroke-miterlimit: 10; stroke-width: 2px;"/>
      <path d="m640.93,97.74v-36.61h34.34v5.36h-28.59v9.13h18.77v5.27h-18.77v11.57h30.18v5.27h-35.92Z" style="fill: #fff; stroke: #fff; stroke-miterlimit: 10; stroke-width: 2px;"/>
      <path d="m693.42,97.74v-36.52h22.5c3.71,0,6.53.76,8.44,2.29,1.92,1.53,2.87,3.78,2.87,6.75,0,1.49-.3,2.81-.9,3.97-.6,1.16-1.47,2.09-2.62,2.81,2.03,1.14,3.56,2.54,4.59,4.18,1.03,1.64,1.54,3.49,1.54,5.55,0,3.4-1.14,6.08-3.41,8.04-2.27,1.96-5.41,2.94-9.41,2.94h-23.62Zm22.33-31.25h-16.59v8.62h16.68c1.83,0,3.21-.36,4.14-1.09.93-.73,1.39-1.81,1.39-3.24s-.47-2.5-1.39-3.21c-.93-.71-2.34-1.07-4.22-1.07Zm1.93,13.97h-18.52v12h18.52c2,0,3.55-.53,4.65-1.59,1.1-1.06,1.65-2.54,1.65-4.46s-.55-3.35-1.65-4.39c-1.1-1.04-2.65-1.56-4.65-1.56Z" style="fill: #fff; stroke: #fff; stroke-miterlimit: 10; stroke-width: 2px;"/>
    </g>
    <g>
      <path d="m176.31,128.18v-13.45h2.14v13.45h-2.14Z" style="fill: #fff; stroke: #fff; stroke-miterlimit: 10;"/>
      <path d="m191.88,128.18v-13.42h1.1l8.55,9.43v-9.43h2.06v13.42h-1.1l-8.53-9.4v9.4h-2.08Z" style="fill: #fff; stroke: #fff; stroke-miterlimit: 10;"/>
      <path d="m216.99,128.18v-13.42h1.1l8.55,9.43v-9.43h2.06v13.42h-1.1l-8.53-9.4v9.4h-2.08Z" style="fill: #fff; stroke: #fff; stroke-miterlimit: 10;"/>
      <path d="m249.13,128.61c-2.39,0-4.36-.68-5.9-2.03-1.54-1.35-2.31-3.05-2.31-5.09s.77-3.75,2.31-5.08c1.54-1.34,3.51-2,5.91-2s4.41.67,5.94,2,2.31,3.03,2.31,5.09-.77,3.75-2.31,5.1c-1.54,1.35-3.52,2.02-5.93,2.02Zm0-1.96c1.79,0,3.26-.48,4.39-1.45s1.7-2.2,1.7-3.7-.57-2.72-1.71-3.69c-1.14-.97-2.6-1.46-4.38-1.46s-3.24.48-4.37,1.45c-1.13.97-1.69,2.2-1.69,3.7s.56,2.73,1.69,3.7c1.13.97,2.58,1.45,4.37,1.45Z" style="fill: #fff; stroke: #fff; stroke-miterlimit: 10;"/>
      <path d="m275.43,128.18h-1.09l-6.75-13.42h2.24l5.05,10.04,4.97-10.04h2.31l-6.74,13.42Z" style="fill: #fff; stroke: #fff; stroke-miterlimit: 10;"/>
      <path d="m289.68,128.18l6.83-13.42h1.32l6.89,13.42h-2.25l-1.75-3.41h-7.1l-1.73,3.41h-2.22Zm4.86-5.19h5.26l-2.61-5.14-2.64,5.14Z" style="fill: #fff; stroke: #fff; stroke-miterlimit: 10;"/>
      <path d="m317.54,128.18v-11.55h-5.67v-1.87h13.44v1.87h-5.68v11.55h-2.09Z" style="fill: #fff; stroke: #fff; stroke-miterlimit: 10;"/>
      <path d="m336.2,128.18v-13.45h2.14v13.45h-2.14Z" style="fill: #fff; stroke: #fff; stroke-miterlimit: 10;"/>
      <path d="m357.61,128.18h-1.09l-6.75-13.42h2.24l5.05,10.04,4.97-10.04h2.31l-6.74,13.42Z" style="fill: #fff; stroke: #fff; stroke-miterlimit: 10;"/>
      <path d="m375.73,128.18v-13.42h12.61v1.97h-10.5v3.35h6.89v1.93h-6.89v4.24h11.08v1.93h-13.19Z" style="fill: #fff; stroke: #fff; stroke-miterlimit: 10;"/>
      <path d="m426.18,114.76c2.19,0,3.96.63,5.3,1.88,1.34,1.25,2.01,2.88,2.01,4.88s-.66,3.64-1.98,4.85c-1.32,1.21-3.1,1.81-5.34,1.81h-5.97v-13.42h5.97Zm.03,1.93h-3.89v9.56h3.89c1.6,0,2.85-.43,3.76-1.28.91-.85,1.37-2.01,1.37-3.48s-.47-2.57-1.42-3.46c-.94-.89-2.18-1.34-3.71-1.34Z" style="fill: #fff; stroke: #fff; stroke-miterlimit: 10;"/>
      <path d="m445.62,128.18v-13.45h2.14v13.45h-2.14Z" style="fill: #fff; stroke: #fff; stroke-miterlimit: 10;"/>
      <path d="m470.29,122.97v-1.93h5.54v4.06c-.78,1.15-1.79,2.03-3.04,2.62-1.25.6-2.7.9-4.34.9-2.48,0-4.5-.67-6.08-2-1.57-1.34-2.36-3.03-2.36-5.08s.79-3.75,2.38-5.1c1.58-1.35,3.6-2.02,6.06-2.02,1.55,0,2.93.27,4.13.8,1.2.53,2.2,1.32,3,2.36l-1.62,1.16c-.57-.74-1.34-1.33-2.31-1.75s-2.04-.64-3.2-.64c-1.84,0-3.34.49-4.52,1.46-1.18.97-1.76,2.21-1.76,3.69s.59,2.72,1.76,3.69,2.68,1.46,4.53,1.46c1.15,0,2.22-.21,3.2-.63s1.67-.95,2.05-1.6v-1.45h-3.42Z" style="fill: #fff; stroke: #fff; stroke-miterlimit: 10;"/>
      <path d="m488.47,128.18v-13.45h2.14v13.45h-2.14Z" style="fill: #fff; stroke: #fff; stroke-miterlimit: 10;"/>
      <path d="m507.2,128.18v-11.55h-5.67v-1.87h13.44v1.87h-5.68v11.55h-2.09Z" style="fill: #fff; stroke: #fff; stroke-miterlimit: 10;"/>
      <path d="m522.11,128.18l6.83-13.42h1.32l6.89,13.42h-2.25l-1.75-3.41h-7.1l-1.73,3.41h-2.22Zm4.86-5.19h5.26l-2.61-5.14-2.64,5.14Z" style="fill: #fff; stroke: #fff; stroke-miterlimit: 10;"/>
      <path d="m547.93,128.18v-13.42h2.11v11.49h9.98v1.93h-12.09Z" style="fill: #fff; stroke: #fff; stroke-miterlimit: 10;"/>
      <path d="m588.11,128.18l6.83-13.42h1.32l6.9,13.42h-2.25l-1.75-3.41h-7.1l-1.73,3.41h-2.22Zm4.86-5.19h5.26l-2.61-5.14-2.64,5.14Z" style="fill: #fff; stroke: #fff; stroke-miterlimit: 10;"/>
      <path d="m623.06,122.97v-1.93h5.54v4.06c-.78,1.15-1.79,2.03-3.04,2.62-1.25.6-2.7.9-4.34.9-2.48,0-4.5-.67-6.08-2-1.57-1.34-2.36-3.03-2.36-5.08s.79-3.75,2.38-5.1c1.58-1.35,3.6-2.02,6.06-2.02,1.55,0,2.93.27,4.13.8,1.2.53,2.2,1.32,3,2.36l-1.62,1.16c-.57-.74-1.34-1.33-2.31-1.75s-2.04-.64-3.2-.64c-1.84,0-3.34.49-4.52,1.46-1.18.97-1.76,2.21-1.76,3.69s.59,2.72,1.76,3.69,2.68,1.46,4.52,1.46c1.15,0,2.22-.21,3.2-.63.98-.42,1.67-.95,2.05-1.6v-1.45h-3.41Z" style="fill: #fff; stroke: #fff; stroke-miterlimit: 10;"/>
      <path d="m641.21,128.18v-13.42h12.61v1.97h-10.5v3.35h6.89v1.93h-6.89v4.24h11.08v1.93h-13.19Z" style="fill: #fff; stroke: #fff; stroke-miterlimit: 10;"/>
      <path d="m666.19,128.18v-13.42h1.1l8.55,9.43v-9.43h2.06v13.42h-1.1l-8.53-9.4v9.4h-2.08Z" style="fill: #fff; stroke: #fff; stroke-miterlimit: 10;"/>
      <path d="m705.5,124.9c-.77,1.2-1.77,2.12-3.01,2.76-1.24.63-2.66.95-4.24.95-2.36,0-4.31-.67-5.83-2s-2.29-3.03-2.29-5.08.76-3.75,2.29-5.1c1.53-1.35,3.47-2.02,5.83-2.02,1.47,0,2.8.28,4,.82,1.2.55,2.16,1.33,2.9,2.33l-1.67,1.16c-.56-.77-1.29-1.35-2.2-1.77-.91-.41-1.92-.62-3.03-.62-1.72,0-3.15.49-4.27,1.47-1.13.98-1.69,2.21-1.69,3.69s.57,2.71,1.7,3.68c1.13.98,2.56,1.47,4.27,1.47,1.2,0,2.25-.24,3.16-.71s1.72-1.21,2.41-2.2l1.68,1.16Z" style="fill: #fff; stroke: #fff; stroke-miterlimit: 10;"/>
      <path d="m720.96,128.18v-6.85l-6.12-6.57h2.71l4.45,4.76,4.38-4.76h2.8l-6.15,6.54v6.88h-2.06Z" style="fill: #fff; stroke: #fff; stroke-miterlimit: 10;"/>
    </g>
  </g>
  <text/>
  <g>
    <path d="m77.78,34.46c6.17,3.4,12.33,6.8,18.5,10.2-10.06,6.1-20.12,12.21-30.18,18.31,9.38,5.33,18.77,10.65,28.15,15.98,20-11.39,40-22.78,60-34.18C128.72,30.05,103.19,15.31,77.66.58,52.11,15.32,26.55,30.06,1,44.8c9.85,5.65,19.7,11.3,29.55,16.96,15.74-9.1,31.48-18.2,47.23-27.29Z" style="fill: #fff; stroke: #fff; stroke-miterlimit: 10;"/>
    <path d="m154.24,69.14c-9.81,5.35-19.63,10.71-29.44,16.06.08,17.36.16,34.72.24,52.08-15.73-8.8-31.45-17.59-47.18-26.39-9.37,5.12-18.74,10.25-28.11,15.37,0,11.53.01,23.06.02,34.59,9.35-5.79,18.69-11.57,28.04-17.36,9.61,5.63,19.21,11.26,28.82,16.88,15.93-8.98,31.85-17.96,47.78-26.94-.06-21.43-.11-42.87-.17-64.3Z" style="fill: #fff; stroke: #fff; stroke-miterlimit: 10;"/>
    <path d="m1.13,133.44c9.81,5.6,19.62,11.19,29.42,16.79.05-29.45.09-58.9.14-88.35-9.85-5.65-19.7-11.3-29.55-16.96,0,29.51,0,59.01-.01,88.52Z" style="fill: #fff; stroke: #fff; stroke-miterlimit: 10;"/>
  </g>
</svg>