<svg width="32" height="32" viewBox="0 0 32 32" fill="none" xmlns="http://www.w3.org/2000/svg">
<path d="M31.3642 13.6714C29.3972 14.7307 27.4302 15.7901 25.4633 16.8494C25.4633 20.3272 25.4633 23.8051 25.4633 27.2829C22.3121 25.524 19.1408 23.7651 15.9896 22.0062C14.1029 23.0255 12.2363 24.0449 10.3496 25.0843C10.3496 27.3828 10.3496 29.7014 10.3496 31.9999C12.2162 30.8407 14.1029 29.6814 15.9696 28.5221C17.8964 29.6414 19.763 30.8607 21.6899 31.98C24.8812 30.1811 28.1528 28.3023 31.3441 26.5234C31.3642 22.246 31.3642 17.9487 31.3642 13.6714Z" fill="#0095CD"/>
<path d="M15.9898 0C10.8716 2.93817 5.7334 5.89632 0.615234 8.83449C0.615234 14.7308 0.615234 20.6271 0.615234 26.5234C2.60229 27.6427 4.56927 28.762 6.55632 29.9013C6.55632 24.005 6.55632 18.1087 6.55632 12.2324C9.70751 10.4135 12.8788 8.59464 16.03 6.77577C17.2744 7.45535 18.4987 8.13492 19.7431 8.8145C17.7159 10.0337 15.7088 11.253 13.6816 12.4722C15.5683 13.5316 17.455 14.6109 19.3417 15.6702C23.356 13.3916 27.3702 11.1131 31.3845 8.83449C26.2262 5.87633 21.108 2.93817 15.9898 0Z" fill="#0095CD"/>
</svg>
